<svg width="101" height="20" viewBox="0 0 101 20" fill="none" xmlns="http://www.w3.org/2000/svg">
<path d="M4.48 3.8H0.24V0.76H12.52V3.8H8.28V15H4.48V3.8ZM22.8933 4.84V15H19.3333V13.62C19.0399 14.1 18.6133 14.48 18.0533 14.76C17.4933 15.0267 16.8799 15.16 16.2133 15.16C15.3466 15.16 14.5733 14.9467 13.8933 14.52C13.2133 14.0933 12.6799 13.4867 12.2933 12.7C11.9199 11.9 11.7333 10.98 11.7333 9.94C11.7333 8.88667 11.9266 7.95333 12.3133 7.14C12.6999 6.32667 13.2333 5.69333 13.9133 5.24C14.5933 4.78667 15.3599 4.56 16.2133 4.56C16.8799 4.56 17.4866 4.70667 18.0333 5C18.5933 5.28 19.0266 5.66 19.3333 6.14V4.84H22.8933ZM17.3333 12.46C17.9733 12.46 18.4666 12.24 18.8133 11.8C19.1599 11.36 19.3333 10.7267 19.3333 9.9C19.3333 9.06 19.1599 8.42 18.8133 7.98C18.4666 7.52667 17.9733 7.3 17.3333 7.3C16.7066 7.3 16.2133 7.53333 15.8533 8C15.4933 8.45333 15.3133 9.1 15.3133 9.94C15.3133 10.7533 15.4866 11.38 15.8333 11.82C16.1799 12.2467 16.6799 12.46 17.3333 12.46ZM35.2648 4.84V15H31.7248V13.64C31.0715 14.6533 30.1048 15.16 28.8248 15.16C27.5315 15.16 26.5648 14.8 25.9248 14.08C25.2982 13.36 24.9848 12.26 24.9848 10.78V4.84H28.6048V10.88C28.6048 11.88 29.0382 12.38 29.9048 12.38C30.4115 12.38 30.8182 12.2 31.1248 11.84C31.4448 11.48 31.6048 11 31.6048 10.4V4.84H35.2648ZM48.3277 4.84C48.1943 5.64 48.1277 6.61333 48.1277 7.76V19.32H44.5077V13.72C44.201 14.1733 43.7743 14.5267 43.2277 14.78C42.6943 15.0333 42.101 15.16 41.4477 15.16C40.581 15.16 39.8077 14.9467 39.1277 14.52C38.4477 14.0933 37.9143 13.4867 37.5277 12.7C37.1543 11.9 36.9677 10.98 36.9677 9.94C36.9677 8.88667 37.161 7.95333 37.5477 7.14C37.9343 6.32667 38.4677 5.69333 39.1477 5.24C39.8277 4.78667 40.5943 4.56 41.4477 4.56C42.1677 4.56 42.821 4.72667 43.4077 5.06C44.0077 5.38 44.441 5.81333 44.7077 6.36L44.9077 4.84H48.3277ZM42.5677 12.46C43.2077 12.46 43.701 12.24 44.0477 11.8C44.3943 11.36 44.5677 10.7267 44.5677 9.9C44.5677 9.06 44.3943 8.42 44.0477 7.98C43.701 7.52667 43.2077 7.3 42.5677 7.3C41.941 7.3 41.4477 7.53333 41.0877 8C40.7277 8.45333 40.5477 9.1 40.5477 9.94C40.5477 10.7533 40.721 11.38 41.0677 11.82C41.4143 12.2467 41.9143 12.46 42.5677 12.46ZM59.6592 10.28H53.2792C53.3459 11.0667 53.5726 11.6333 53.9592 11.98C54.3459 12.3267 54.9126 12.5 55.6592 12.5C56.1659 12.5 56.6726 12.42 57.1792 12.26C57.6859 12.0867 58.1459 11.8533 58.5592 11.56L59.4792 13.96C58.9726 14.3333 58.3592 14.6267 57.6392 14.84C56.9192 15.0533 56.1992 15.16 55.4792 15.16C54.3192 15.16 53.3126 14.9467 52.4592 14.52C51.6059 14.0933 50.9526 13.4867 50.4992 12.7C50.0459 11.9 49.8192 10.96 49.8192 9.88C49.8192 8.85333 50.0326 7.94 50.4592 7.14C50.8992 6.32667 51.4992 5.69333 52.2592 5.24C53.0326 4.78667 53.9126 4.56 54.8992 4.56C55.8592 4.56 56.6992 4.77333 57.4192 5.2C58.1392 5.62667 58.6926 6.24 59.0792 7.04C59.4659 7.82667 59.6592 8.74667 59.6592 9.8V10.28ZM54.9992 7.04C54.1059 7.04 53.5459 7.56 53.3192 8.6H56.5592C56.4259 7.56 55.9059 7.04 54.9992 7.04ZM70.7139 10.28H64.3339C64.4006 11.0667 64.6272 11.6333 65.0139 11.98C65.4006 12.3267 65.9672 12.5 66.7139 12.5C67.2206 12.5 67.7272 12.42 68.2339 12.26C68.7406 12.0867 69.2006 11.8533 69.6139 11.56L70.5339 13.96C70.0272 14.3333 69.4139 14.6267 68.6939 14.84C67.9739 15.0533 67.2539 15.16 66.5339 15.16C65.3739 15.16 64.3672 14.9467 63.5139 14.52C62.6606 14.0933 62.0072 13.4867 61.5539 12.7C61.1006 11.9 60.8739 10.96 60.8739 9.88C60.8739 8.85333 61.0872 7.94 61.5139 7.14C61.9539 6.32667 62.5539 5.69333 63.3139 5.24C64.0872 4.78667 64.9672 4.56 65.9539 4.56C66.9139 4.56 67.7539 4.77333 68.4739 5.2C69.1939 5.62667 69.7472 6.24 70.1339 7.04C70.5206 7.82667 70.7139 8.74667 70.7139 9.8V10.28ZM66.0539 7.04C65.1606 7.04 64.6006 7.56 64.3739 8.6H67.6139C67.4806 7.56 66.9606 7.04 66.0539 7.04ZM78.8086 4.6C79.3019 4.6 79.6819 4.67333 79.9486 4.82V8.12C79.3753 7.85333 78.8219 7.72 78.2886 7.72C76.7686 7.72 76.0086 8.44667 76.0086 9.9V15H72.3886V7.76C72.3886 6.66667 72.3353 5.69333 72.2286 4.84H75.6286L75.8486 6.54C76.0886 5.91333 76.4753 5.43333 77.0086 5.1C77.5419 4.76667 78.1419 4.6 78.8086 4.6Z" fill="#EEEBEB"/>
<path d="M94.3023 0.76V15H90.6223V9.24H84.8623V15H81.1823V0.76H84.8623V6.3H90.6223V0.76H94.3023ZM100.226 11.28V15H96.4459V11.28H100.226Z" fill="#03FFC5"/>
</svg>
